<svg id="Calque_1" data-name="Calque 1" xmlns="http://www.w3.org/2000/svg" viewBox="0 0 335.17 63.31"><defs><style>.cls-1{fill:#41245e;}.cls-2{fill:#f2e32a;}.cls-3{fill:#c2d342;}.cls-4{fill:#79bb58;}.cls-5{fill:#62b664;}.cls-6{fill:#43b173;}.cls-7{fill:#209e86;}.cls-8{fill:#414e88;}.cls-9{fill:#396589;}.cls-10{fill:#2e8187;}.cls-11,.cls-12{fill:#1d1d1b;}.cls-11{stroke:#1d1d1b;stroke-miterlimit:10;stroke-width:0.25px;}.cls-12{font-size:18px;font-family:MyriadPro-Regular, Myriad Pro;}</style></defs><rect class="cls-1" x="296.24" y="9.12" width="32.2" height="32.2" transform="translate(337.56 -287.11) rotate(90)"/><rect class="cls-2" x="6.41" y="9.12" width="32.2" height="32.2" transform="translate(47.73 2.72) rotate(90)"/><rect class="cls-3" x="38.61" y="9.12" width="32.2" height="32.2" transform="translate(79.93 -29.49) rotate(90)"/><rect class="cls-4" x="70.81" y="9.12" width="32.2" height="32.2" transform="translate(112.14 -61.69) rotate(90)"/><rect class="cls-5" x="103.02" y="9.12" width="32.2" height="32.2" transform="translate(144.34 -93.89) rotate(90)"/><rect class="cls-6" x="135.22" y="9.12" width="32.2" height="32.2" transform="translate(176.54 -126.1) rotate(90)"/><rect class="cls-7" x="167.42" y="9.03" width="32.2" height="32.2" transform="translate(208.66 -158.39) rotate(90)"/><rect class="cls-8" x="264.03" y="9.12" width="32.2" height="32.2" transform="translate(305.36 -254.91) rotate(90)"/><rect class="cls-9" x="231.83" y="9.12" width="32.2" height="32.2" transform="translate(273.15 -222.71) rotate(90)"/><rect class="cls-10" x="199.63" y="9.03" width="32.2" height="32.2" transform="translate(240.86 -190.6) rotate(90)"/><line class="cls-11" x1="38.61" y1="45.33" x2="38.61" y2="34.58"/><line class="cls-11" x1="70.81" y1="45.33" x2="70.81" y2="34.58"/><line class="cls-11" x1="103.02" y1="45.49" x2="103.02" y2="34.74"/><line class="cls-11" x1="135.22" y1="45.49" x2="135.22" y2="34.74"/><line class="cls-11" x1="167.42" y1="45.49" x2="167.42" y2="34.74"/><line class="cls-11" x1="199.63" y1="45.33" x2="199.63" y2="34.58"/><line class="cls-11" x1="264.03" y1="45.33" x2="264.03" y2="34.58"/><line class="cls-11" x1="231.83" y1="45.33" x2="231.83" y2="34.58"/><line class="cls-11" x1="296.24" y1="45.33" x2="296.24" y2="34.58"/><text class="cls-12" transform="translate(288.73 58.6)">0,9</text><text class="cls-12" transform="translate(256.33 58.6)">0,8</text><text class="cls-12" transform="translate(223.92 58.6)">0,7</text><text class="cls-12" transform="translate(191.52 58.6)">0,6</text><text class="cls-12" transform="translate(159.12 58.6)">0,5</text><text class="cls-12" transform="translate(126.71 58.6)">0,4</text><text class="cls-12" transform="translate(94.31 58.6)">0,3</text><text class="cls-12" transform="translate(61.91 58.6)">0,2</text><text class="cls-12" transform="translate(29.5 58.6)">0,1</text></svg>